<mxfile host="app.diagrams.net" modified="2022-01-19T09:09:22.232Z" agent="5.0 (Windows NT 10.0; Win64; x64) AppleWebKit/537.36 (KHTML, like Gecko) Chrome/97.0.4692.71 Safari/537.36 Edg/97.0.1072.62" etag="95-gqtJJS_p4zLsGMLGb" version="16.0.0" type="github">
  <diagram id="1N8k5WOfIDqrx_oH_IDB" name="第 1 页">
    <mxGraphModel dx="1422" dy="794" grid="1" gridSize="10" guides="1" tooltips="1" connect="1" arrows="1" fold="1" page="1" pageScale="1" pageWidth="827" pageHeight="1169" math="0" shadow="0">
      <root>
        <mxCell id="0" />
        <mxCell id="1" parent="0" />
        <mxCell id="f1x8mG7oKjL7UlrrwhCl-1" value="&lt;span style=&quot;font-size: 24px&quot;&gt;业务订购场景&lt;/span&gt;" style="text;html=1;strokeColor=none;fillColor=none;align=center;verticalAlign=middle;whiteSpace=wrap;rounded=0;sketch=1;fontColor=#46495D;" vertex="1" parent="1">
          <mxGeometry x="300" y="100" width="180" height="20" as="geometry" />
        </mxCell>
        <mxCell id="f1x8mG7oKjL7UlrrwhCl-2" value="Pool" style="swimlane;childLayout=stackLayout;resizeParent=1;resizeParentMax=0;startSize=20;horizontal=0;horizontalStack=1;rounded=1;sketch=1;fontColor=#46495D;strokeColor=#788AA3;fillColor=#B2C9AB;" vertex="1" parent="1">
          <mxGeometry x="110" y="150" width="560" height="920" as="geometry" />
        </mxCell>
        <mxCell id="f1x8mG7oKjL7UlrrwhCl-3" value="政企中台" style="swimlane;startSize=20;" vertex="1" parent="f1x8mG7oKjL7UlrrwhCl-2">
          <mxGeometry x="20" width="170" height="920" as="geometry" />
        </mxCell>
        <mxCell id="f1x8mG7oKjL7UlrrwhCl-4" value="" style="edgeStyle=orthogonalEdgeStyle;curved=1;rounded=1;sketch=1;orthogonalLoop=1;jettySize=auto;html=1;fontColor=#46495D;strokeColor=#788AA3;fillColor=#B2C9AB;" edge="1" parent="f1x8mG7oKjL7UlrrwhCl-3" source="f1x8mG7oKjL7UlrrwhCl-5" target="f1x8mG7oKjL7UlrrwhCl-7">
          <mxGeometry relative="1" as="geometry" />
        </mxCell>
        <mxCell id="f1x8mG7oKjL7UlrrwhCl-5" value="开始" style="ellipse;whiteSpace=wrap;html=1;rounded=1;sketch=1;fontColor=#46495D;strokeColor=#788AA3;fillColor=#B2C9AB;" vertex="1" parent="f1x8mG7oKjL7UlrrwhCl-3">
          <mxGeometry x="50" y="30" width="70" height="20" as="geometry" />
        </mxCell>
        <mxCell id="f1x8mG7oKjL7UlrrwhCl-6" value="" style="edgeStyle=orthogonalEdgeStyle;curved=1;rounded=1;sketch=1;orthogonalLoop=1;jettySize=auto;html=1;fontColor=#46495D;strokeColor=#788AA3;fillColor=#B2C9AB;" edge="1" parent="f1x8mG7oKjL7UlrrwhCl-3" source="f1x8mG7oKjL7UlrrwhCl-7" target="f1x8mG7oKjL7UlrrwhCl-8">
          <mxGeometry relative="1" as="geometry" />
        </mxCell>
        <mxCell id="f1x8mG7oKjL7UlrrwhCl-7" value="业务受理" style="whiteSpace=wrap;html=1;rounded=1;fontColor=#46495D;strokeColor=#788AA3;fillColor=#B2C9AB;sketch=1;" vertex="1" parent="f1x8mG7oKjL7UlrrwhCl-3">
          <mxGeometry x="25" y="108" width="120" height="60" as="geometry" />
        </mxCell>
        <mxCell id="f1x8mG7oKjL7UlrrwhCl-8" value="创建订单" style="whiteSpace=wrap;html=1;rounded=1;fontColor=#46495D;strokeColor=#788AA3;fillColor=#B2C9AB;sketch=1;" vertex="1" parent="f1x8mG7oKjL7UlrrwhCl-3">
          <mxGeometry x="25" y="248" width="120" height="60" as="geometry" />
        </mxCell>
        <mxCell id="f1x8mG7oKjL7UlrrwhCl-9" value="" style="edgeStyle=orthogonalEdgeStyle;curved=1;rounded=1;sketch=1;orthogonalLoop=1;jettySize=auto;html=1;fontColor=#46495D;strokeColor=#788AA3;fillColor=#B2C9AB;" edge="1" parent="f1x8mG7oKjL7UlrrwhCl-3" target="f1x8mG7oKjL7UlrrwhCl-10">
          <mxGeometry relative="1" as="geometry">
            <mxPoint x="85" y="730" as="sourcePoint" />
          </mxGeometry>
        </mxCell>
        <mxCell id="f1x8mG7oKjL7UlrrwhCl-10" value="结束" style="ellipse;whiteSpace=wrap;html=1;rounded=1;fontColor=#46495D;strokeColor=#788AA3;fillColor=#B2C9AB;sketch=1;" vertex="1" parent="f1x8mG7oKjL7UlrrwhCl-3">
          <mxGeometry x="25" y="810" width="120" height="60" as="geometry" />
        </mxCell>
        <mxCell id="f1x8mG7oKjL7UlrrwhCl-11" value="COP" style="swimlane;startSize=20;" vertex="1" parent="f1x8mG7oKjL7UlrrwhCl-2">
          <mxGeometry x="190" width="190" height="920" as="geometry" />
        </mxCell>
        <mxCell id="f1x8mG7oKjL7UlrrwhCl-12" value="" style="edgeStyle=orthogonalEdgeStyle;curved=1;rounded=1;sketch=1;orthogonalLoop=1;jettySize=auto;html=1;fontColor=#46495D;strokeColor=#788AA3;fillColor=#B2C9AB;" edge="1" parent="f1x8mG7oKjL7UlrrwhCl-11" source="f1x8mG7oKjL7UlrrwhCl-13" target="f1x8mG7oKjL7UlrrwhCl-14">
          <mxGeometry relative="1" as="geometry" />
        </mxCell>
        <mxCell id="f1x8mG7oKjL7UlrrwhCl-13" value="业务订购" style="whiteSpace=wrap;html=1;rounded=1;fontColor=#46495D;strokeColor=#788AA3;fillColor=#B2C9AB;sketch=1;" vertex="1" parent="f1x8mG7oKjL7UlrrwhCl-11">
          <mxGeometry x="35" y="248" width="120" height="60" as="geometry" />
        </mxCell>
        <mxCell id="f1x8mG7oKjL7UlrrwhCl-14" value="创建客户和应用" style="whiteSpace=wrap;html=1;rounded=1;fontColor=#46495D;strokeColor=#788AA3;fillColor=#B2C9AB;sketch=1;" vertex="1" parent="f1x8mG7oKjL7UlrrwhCl-11">
          <mxGeometry x="35" y="388" width="120" height="60" as="geometry" />
        </mxCell>
        <mxCell id="f1x8mG7oKjL7UlrrwhCl-15" value="cBSS" style="swimlane;startSize=20;" vertex="1" parent="f1x8mG7oKjL7UlrrwhCl-2">
          <mxGeometry x="380" width="180" height="920" as="geometry" />
        </mxCell>
        <mxCell id="f1x8mG7oKjL7UlrrwhCl-16" value="落集团用户资料" style="whiteSpace=wrap;html=1;rounded=1;fontColor=#46495D;strokeColor=#788AA3;fillColor=#B2C9AB;sketch=1;" vertex="1" parent="f1x8mG7oKjL7UlrrwhCl-15">
          <mxGeometry x="30" y="670" width="120" height="60" as="geometry" />
        </mxCell>
        <mxCell id="f1x8mG7oKjL7UlrrwhCl-17" value="创建集团用户资料" style="whiteSpace=wrap;html=1;rounded=1;fontColor=#46495D;strokeColor=#788AA3;fillColor=#B2C9AB;sketch=1;" vertex="1" parent="f1x8mG7oKjL7UlrrwhCl-15">
          <mxGeometry x="-335" y="538" width="120" height="60" as="geometry" />
        </mxCell>
        <mxCell id="f1x8mG7oKjL7UlrrwhCl-18" value="保存集团业务编码和订购信息" style="whiteSpace=wrap;html=1;rounded=1;fontColor=#46495D;strokeColor=#788AA3;fillColor=#B2C9AB;sketch=1;" vertex="1" parent="f1x8mG7oKjL7UlrrwhCl-15">
          <mxGeometry x="-155" y="538" width="120" height="60" as="geometry" />
        </mxCell>
        <mxCell id="f1x8mG7oKjL7UlrrwhCl-19" value="归档集团用户资料" style="whiteSpace=wrap;html=1;rounded=1;fontColor=#46495D;strokeColor=#788AA3;fillColor=#B2C9AB;sketch=1;" vertex="1" parent="f1x8mG7oKjL7UlrrwhCl-15">
          <mxGeometry x="-335" y="670" width="120" height="60" as="geometry" />
        </mxCell>
        <mxCell id="f1x8mG7oKjL7UlrrwhCl-20" value="" style="edgeStyle=orthogonalEdgeStyle;curved=1;rounded=1;sketch=1;orthogonalLoop=1;jettySize=auto;html=1;fontColor=#46495D;strokeColor=#788AA3;fillColor=#B2C9AB;" edge="1" parent="f1x8mG7oKjL7UlrrwhCl-2" source="f1x8mG7oKjL7UlrrwhCl-8" target="f1x8mG7oKjL7UlrrwhCl-13">
          <mxGeometry relative="1" as="geometry" />
        </mxCell>
        <mxCell id="f1x8mG7oKjL7UlrrwhCl-21" value="" style="edgeStyle=orthogonalEdgeStyle;curved=1;rounded=1;sketch=1;orthogonalLoop=1;jettySize=auto;html=1;fontColor=#46495D;strokeColor=#788AA3;fillColor=#B2C9AB;" edge="1" parent="f1x8mG7oKjL7UlrrwhCl-2">
          <mxGeometry relative="1" as="geometry">
            <mxPoint x="225" y="568" as="sourcePoint" />
            <mxPoint x="165" y="568" as="targetPoint" />
          </mxGeometry>
        </mxCell>
        <mxCell id="f1x8mG7oKjL7UlrrwhCl-22" value="" style="edgeStyle=orthogonalEdgeStyle;curved=1;rounded=1;sketch=1;orthogonalLoop=1;jettySize=auto;html=1;fontColor=#46495D;strokeColor=#788AA3;fillColor=#B2C9AB;exitX=0.5;exitY=1;exitDx=0;exitDy=0;" edge="1" parent="f1x8mG7oKjL7UlrrwhCl-2" target="f1x8mG7oKjL7UlrrwhCl-16">
          <mxGeometry relative="1" as="geometry">
            <mxPoint x="105" y="598" as="sourcePoint" />
            <Array as="points">
              <mxPoint x="105" y="640" />
              <mxPoint x="470" y="640" />
            </Array>
          </mxGeometry>
        </mxCell>
        <mxCell id="f1x8mG7oKjL7UlrrwhCl-23" value="" style="edgeStyle=orthogonalEdgeStyle;curved=1;rounded=1;sketch=1;orthogonalLoop=1;jettySize=auto;html=1;fontColor=#46495D;strokeColor=#788AA3;fillColor=#B2C9AB;" edge="1" parent="f1x8mG7oKjL7UlrrwhCl-2" source="f1x8mG7oKjL7UlrrwhCl-16">
          <mxGeometry relative="1" as="geometry">
            <mxPoint x="165" y="700" as="targetPoint" />
          </mxGeometry>
        </mxCell>
        <mxCell id="f1x8mG7oKjL7UlrrwhCl-24" value="" style="edgeStyle=orthogonalEdgeStyle;curved=1;rounded=1;sketch=1;orthogonalLoop=1;jettySize=auto;html=1;fontColor=#46495D;strokeColor=#788AA3;fillColor=#B2C9AB;" edge="1" parent="f1x8mG7oKjL7UlrrwhCl-2" source="f1x8mG7oKjL7UlrrwhCl-14" target="f1x8mG7oKjL7UlrrwhCl-18">
          <mxGeometry relative="1" as="geometry" />
        </mxCell>
      </root>
    </mxGraphModel>
  </diagram>
</mxfile>
